<svg t="1619513539770" class="icon" viewBox="0 0 1024 1024" version="1.1" xmlns="http://www.w3.org/2000/svg" p-id="13272" width="200" height="200"><path d="M512 0c-282.947368 0-512 229.052632-512 512s229.052632 512 512 512 512-229.052632 512-512-229.052632-512-512-512z m366.484211 436.547368l-161.684211 148.210527c-8.084211 8.084211-10.778947 10.778947-8.084211 21.557894l2.694737 18.863158c-78.147368 0-167.073684-5.389474-237.136842-13.473684-5.389474 0 0-2.694737 0-2.694737l231.747369-156.294737s8.084211-5.389474 0-8.08421c-13.473684-2.694737-40.421053-5.389474-40.421053-5.389474-45.810526-5.389474-97.010526-8.084211-150.905263-8.08421-91.621053 0-175.157895 8.084211-242.526316 24.252631h8.084211c99.705263 0 204.8 2.694737 299.115789 18.863158 5.389474 0 0 5.389474 0 5.389474l-231.747368 161.68421s-10.778947 5.389474 0 8.084211c24.252632 2.694737 48.505263 5.389474 75.452631 8.08421 29.642105 2.694737 61.978947 2.694737 94.31579 2.694737 86.231579 0 180.547368-10.778947 247.915789-24.252631h5.389474c-10.778947 8.084211-29.642105 16.168421-51.2 24.252631l32.336842 177.852632c2.694737 18.863158-8.084211 26.947368-24.252632 16.168421l-191.326315-107.789474c-13.473684-8.084211-26.947368-8.084211-37.726316 0l-191.326316 107.789474c-16.168421 10.778947-26.947368 2.694737-24.252632-16.168421l43.11579-220.968421c2.694737-10.778947 2.694737-13.473684-5.389474-21.557895l-167.073684-150.905263c-13.473684-13.473684-10.778947-26.947368 10.778947-26.947368l212.884211-24.252632c16.168421-2.694737 18.863158-5.389474 26.947368-16.168421l99.705263-204.8c8.084211-16.168421 21.557895-16.168421 32.336843 0l94.315789 204.8c5.389474 13.473684 8.084211 16.168421 26.947368 18.863158l220.968422 21.557895c10.778947-8.084211 13.473684 5.389474 0 18.863157z" fill="#FFCE00" p-id="13273"></path></svg>
