<svg t="1619513425124" class="icon" viewBox="0 0 1024 1024" version="1.1" xmlns="http://www.w3.org/2000/svg" p-id="10337" width="200" height="200"><path d="M503.04 408.32c17.92 0 30.72-12.8 30.72-30.72 0-17.92-11.52-30.72-30.72-30.72-17.92 0-37.12 11.52-37.12 30.72 0 17.92 17.92 30.72 37.12 30.72zM582.4 524.8c-11.52 0-24.32 12.8-24.32 24.32 0 12.8 12.8 24.32 24.32 24.32 19.2 0 30.72-11.52 30.72-24.32 0-11.52-12.8-24.32-30.72-24.32z" fill="#79D69C" p-id="10338"></path><path d="M512 0C229.12 0 0 229.12 0 512s229.12 512 512 512 512-229.12 512-512S794.88 0 512 0zM410.88 659.2c-30.72 0-55.04-6.4-85.76-12.8l-85.76 42.24 24.32-72.96c-61.44-42.24-97.28-98.56-97.28-165.12 0-115.2 110.08-207.36 244.48-207.36 120.32 0 225.28 72.96 247.04 171.52-7.68-1.28-15.36-1.28-23.04-1.28-116.48 0-207.36 87.04-207.36 193.28 0 17.92 2.56 34.56 7.68 51.2-8.96 1.28-16.64 1.28-24.32 1.28z m360.96 85.76l17.92 61.44-66.56-37.12c-24.32 6.4-48.64 12.8-72.96 12.8-116.48 0-208.64-79.36-208.64-177.92 0-97.28 92.16-177.92 208.64-177.92 110.08 0 207.36 79.36 207.36 177.92 0 55.04-37.12 103.68-85.76 140.8z" fill="#79D69C" p-id="10339"></path><path d="M716.8 524.8c-11.52 0-24.32 12.8-24.32 24.32 0 12.8 12.8 24.32 24.32 24.32 17.92 0 30.72-11.52 30.72-24.32 0-11.52-12.8-24.32-30.72-24.32zM331.52 346.88c-17.92 0-37.12 11.52-37.12 30.72 0 17.92 17.92 30.72 37.12 30.72 17.92 0 30.72-12.8 30.72-30.72 0-17.92-12.8-30.72-30.72-30.72z" fill="#79D69C" p-id="10340"></path></svg>
